<svg xmlns="http://www.w3.org/2000/svg" width="380" height="380" fill="none" viewBox="0 0 380 380">
    <g clip-path="url(#clip0)">
        <path fill="#FFB954" d="M327.253 278.839L190 354.206 52.748 278.839v-150.73L190 52.742l137.253 75.367v150.73z"/>
        <path fill="#FEA02C" d="M52.748 128.109v.002L190 203.478l137.253-75.367v-.002L190 52.742 52.748 128.109z"/>
        <path fill="#FFC66C" d="M52.748 128.155v150.684L190 354.206l.081-.044V203.475L52.829 128.108l-.081.047z"/>
        <path fill="#FEDA9B" d="M327.253 128.111l45.325 45.323-137.252 75.367L190 203.475l137.253-75.364zM52.748 128.111L7.422 173.434l137.252 75.367L190 203.475 52.748 128.111zM327.253 128.111l45.325-45.322L235.326 7.422 190 52.748l137.253 75.363zM52.748 128.111L7.422 82.789 144.674 7.422 190 52.748 52.748 128.11z"/>
        <path fill="#000" d="M337.751 128.111l40.075-40.075c1.653-1.65 2.429-3.983 2.099-6.294-.328-2.31-1.728-4.334-3.775-5.46l-48.178-26.454c-3.592-1.972-8.103-.658-10.078 2.934-1.971 3.595-.661 8.106 2.934 10.077l39.51 21.695-34.393 34.39-123.699-67.925 34.39-34.39L271.4 35.7c3.592 1.972 8.106.661 10.078-2.934 1.974-3.592.661-8.106-2.934-10.077L238.898.916c-2.894-1.589-6.489-1.076-8.82 1.258L190 42.252 149.922 2.174C147.588-.16 143.993-.67 141.103.916L3.85 76.283C1.804 77.408.403 79.428.076 81.742c-.33 2.31.446 4.644 2.099 6.294l40.075 40.075-40.075 40.073c-1.653 1.652-2.43 3.983-2.1 6.297.328 2.31 1.729 4.334 3.775 5.456l41.476 22.776v76.126c0 2.711 1.476 5.204 3.85 6.509l137.253 75.364c1.113.611 2.342.916 3.571.916 1.23 0 2.459-.305 3.572-.916l137.253-75.364c2.374-1.305 3.85-3.798 3.85-6.509v-76.126l41.475-22.773c2.047-1.125 3.447-3.149 3.775-5.459.33-2.311-.446-4.645-2.099-6.295l-40.075-40.075zM190 195.007L68.168 128.108 190 61.208l121.832 66.9L190 195.007zM143.367 16.609L177.754 51 54.055 118.924l-34.39-34.39 123.702-67.925zM54.061 137.296L177.76 205.22l-34.393 34.393-123.702-67.924 34.396-34.393zm265.77 137.154l-122.409 67.214v-75.868c0-4.1-3.322-7.422-7.422-7.422-4.099 0-7.422 3.322-7.422 7.422v75.868L60.17 274.45v-63.585l80.933 44.442c1.122.614 2.351.916 3.569.916 1.922 0 3.824-.748 5.25-2.175L190 213.97l40.078 40.078c1.427 1.43 3.329 2.175 5.251 2.175 1.218 0 2.447-.302 3.569-.916l80.933-44.442v63.585zm-83.195-34.837l-34.392-34.395 123.698-67.922 34.396 34.39-123.702 67.927z"/>
        <path fill="#000" d="M300.438 50.6c1.952 0 3.859-.795 5.248-2.178 1.38-1.38 2.174-3.294 2.174-5.245 0-1.954-.794-3.867-2.174-5.247-1.38-1.383-3.296-2.175-5.248-2.175-1.959 0-3.867.792-5.247 2.175-1.389 1.38-2.174 3.293-2.174 5.247 0 1.951.785 3.865 2.174 5.245 1.38 1.383 3.296 2.177 5.247 2.177zM190 233.734c-1.951 0-3.867.791-5.247 2.174-1.381 1.386-2.175 3.294-2.175 5.248 0 1.957.794 3.864 2.175 5.253 1.38 1.38 3.296 2.169 5.247 2.169s3.867-.789 5.247-2.169c1.381-1.389 2.175-3.296 2.175-5.253 0-1.954-.794-3.862-2.175-5.248-1.38-1.383-3.296-2.174-5.247-2.174z"/>
    </g>
    <defs>
        <clipPath id="clip0">
            <path fill="#fff" d="M0 0H380V380H0z"/>
        </clipPath>
    </defs>
</svg>
